# Blender 4.4.0
# www.blender.org
mtllib test-hex-ball.mtl
o GD_mesh
v 0.252605 1.687677 1.043042
v -0.252605 1.687677 1.043042
v 0.913933 1.687677 0.562559
v 1.070051 1.687677 0.082076
v 0.817446 1.687677 -0.695361
v 0.408723 1.687677 -0.992316
v -0.408723 1.687677 -0.992316
v -0.817446 1.687677 -0.695361
v -1.070051 1.687677 0.082076
v -0.913933 1.687677 0.562559
v 0.913933 1.257920 1.257920
v 1.070051 0.828164 1.472799
v 1.478774 1.257920 -0.480483
v 1.731379 0.828163 -0.562559
v 0.000000 1.257920 -1.554875
v 0.000000 0.828163 -1.820479
v -1.478774 1.257920 -0.480483
v -1.731379 0.828163 -0.562559
v -0.913933 1.257920 1.257920
v -1.070051 0.828164 1.472799
v 0.817446 0.132802 1.820479
v 0.408723 -0.132802 1.953282
v 1.478774 0.132802 1.339997
v 1.731379 -0.132802 0.992316
v 1.983984 -0.132802 0.214878
v 1.983984 0.132802 -0.214878
v 1.731379 0.132802 -0.992316
v 1.478774 -0.132802 -1.339997
v 0.817446 -0.132802 -1.820479
v 0.408723 0.132802 -1.953282
v -0.408723 0.132802 -1.953282
v -0.817446 -0.132802 -1.820479
v -1.478774 -0.132802 -1.339997
v -1.731379 0.132802 -0.992316
v -1.983984 0.132802 -0.214879
v -1.983984 -0.132802 0.214878
v -1.731379 -0.132802 0.992316
v -1.478774 0.132802 1.339997
v -0.817446 0.132802 1.820479
v -0.408723 -0.132802 1.953282
v 1.731379 -0.828163 0.562559
v 1.478774 -1.257920 0.480483
v 1.070051 -0.828164 -1.472799
v 0.913933 -1.257920 -1.257920
v -1.070051 -0.828164 -1.472799
v -0.913933 -1.257920 -1.257920
v -1.731379 -0.828163 0.562559
v -1.478774 -1.257920 0.480483
v -0.000000 -0.828163 1.820479
v -0.000000 -1.257920 1.554875
v 0.817446 -1.687677 0.695361
v 0.408723 -1.687677 0.992316
v 1.070051 -1.687677 -0.082076
v 0.913933 -1.687677 -0.562559
v 0.252605 -1.687677 -1.043042
v -0.252605 -1.687677 -1.043042
v -0.913933 -1.687677 -0.562559
v -1.070051 -1.687677 -0.082076
v -0.817446 -1.687677 0.695361
v -0.408723 -1.687677 0.992316
v 0.211974 1.967217 0.291757
v 0.461049 1.839767 0.634580
v 1.483820 1.140722 0.705005
v 1.152624 1.390355 0.859286
v 0.211974 1.140722 1.629055
v 0.461049 1.390355 1.361744
v 0.342981 1.967217 -0.111441
v 0.745994 1.839767 -0.242388
v 1.129025 1.140722 -1.193338
v 1.173410 1.390354 -0.830676
v 1.614827 1.140722 0.301806
v 1.437568 1.390354 -0.017682
v 0.000000 1.967217 -0.360632
v 0.000000 1.839767 -0.784384
v -0.786044 1.140722 -1.442528
v -0.427416 1.390354 -1.372673
v 0.786044 1.140722 -1.442528
v 0.427416 1.390354 -1.372673
v -0.342981 1.967217 -0.111441
v -0.745994 1.839767 -0.242388
v -1.614827 1.140722 0.301806
v -1.437568 1.390354 -0.017682
v -1.129025 1.140722 -1.193338
v -1.173410 1.390354 -0.830676
v -0.211974 1.967217 0.291757
v -0.461049 1.839767 0.634580
v -0.211974 1.140722 1.629055
v -0.461049 1.390355 1.361744
v -1.483820 1.140722 0.705005
v -1.152624 1.390355 0.859286
v 0.342982 0.780090 1.809371
v 0.745994 0.605970 1.753937
v 1.614827 0.780090 0.885321
v 1.437568 0.605970 1.251478
v 1.129025 -0.557207 1.553970
v 1.173410 -0.121194 1.615061
v 1.826801 0.557207 0.593564
v 1.898618 0.121194 0.616898
v 1.826801 -0.780090 -0.232932
v 1.898618 -0.605970 0.167486
v 1.340999 -0.780090 1.262212
v 1.634460 -0.605970 0.980480
v 1.826801 0.780090 0.232932
v 1.898618 0.605970 -0.167486
v 1.340999 0.780090 -1.262212
v 1.634460 0.605970 -0.980480
v 1.826801 -0.557207 -0.593564
v 1.898618 -0.121194 -0.616898
v 1.129025 0.557207 -1.553970
v 1.173410 0.121194 -1.615061
v 0.342982 -0.780090 -1.809371
v 0.745994 -0.605970 -1.753937
v 1.614827 -0.780090 -0.885321
v 1.437568 -0.605970 -1.251478
v 0.786044 0.780090 -1.665411
v 0.427416 0.605970 -1.857449
v -0.786044 0.780090 -1.665411
v -0.427416 0.605970 -1.857449
v 0.000000 -0.557207 -1.920812
v 0.000000 -0.121194 -1.996325
v -1.129025 0.557207 -1.553970
v -1.173410 0.121194 -1.615061
v -1.614827 -0.780090 -0.885321
v -1.437568 -0.605970 -1.251478
v -0.342982 -0.780090 -1.809371
v -0.745994 -0.605970 -1.753937
v -1.340999 0.780090 -1.262212
v -1.634460 0.605970 -0.980480
v -1.826801 0.780090 0.232932
v -1.898618 0.605970 -0.167486
v -1.826801 -0.557207 -0.593564
v -1.898618 -0.121194 -0.616898
v -1.826801 0.557207 0.593564
v -1.898618 0.121194 0.616898
v -1.340999 -0.780090 1.262212
v -1.634460 -0.605970 0.980480
v -1.826801 -0.780090 -0.232932
v -1.898618 -0.605970 0.167486
v -1.614827 0.780090 0.885321
v -1.437568 0.605970 1.251478
v -0.342982 0.780090 1.809371
v -0.745994 0.605970 1.753937
v -1.129025 -0.557207 1.553970
v -1.173410 -0.121194 1.615061
v -0.000000 0.557207 1.920812
v -0.000000 0.121194 1.996325
v 0.786044 -0.780090 1.665411
v 0.427416 -0.605970 1.857449
v -0.786044 -0.780090 1.665411
v -0.427416 -0.605970 1.857449
v 1.129025 -1.140722 1.193338
v 1.173410 -1.390354 0.830676
v 1.614827 -1.140722 -0.301806
v 1.437568 -1.390354 0.017682
v 0.342981 -1.967217 0.111441
v 0.745994 -1.839767 0.242388
v 1.483820 -1.140722 -0.705005
v 1.152624 -1.390355 -0.859286
v 0.211974 -1.140722 -1.629055
v 0.461049 -1.390355 -1.361744
v 0.211974 -1.967217 -0.291757
v 0.461049 -1.839767 -0.634580
v -0.211974 -1.140722 -1.629055
v -0.461049 -1.390355 -1.361744
v -1.483820 -1.140722 -0.705005
v -1.152624 -1.390355 -0.859286
v -0.211974 -1.967217 -0.291757
v -0.461049 -1.839767 -0.634580
v -1.614827 -1.140722 -0.301806
v -1.437568 -1.390354 0.017682
v -1.129025 -1.140722 1.193338
v -1.173410 -1.390354 0.830676
v -0.342981 -1.967217 0.111441
v -0.745994 -1.839767 0.242388
v -0.786044 -1.140722 1.442528
v -0.427416 -1.390354 1.372673
v 0.786044 -1.140722 1.442528
v 0.427416 -1.390354 1.372673
v -0.000000 -1.967217 0.360632
v -0.000000 -1.839767 0.784384
vn -0.0000 -0.9372 -0.3487
vn 0.3317 -0.9372 -0.1078
vn 0.2050 -0.9372 0.2821
vn -0.2050 -0.9372 0.2821
vn -0.3317 -0.9372 -0.1078
vn -0.3317 -0.5155 -0.7901
vn -0.2050 -0.1668 -0.9644
vn 0.2050 -0.1668 -0.9644
vn 0.3317 -0.5155 -0.7901
vn -0.0000 -0.7311 -0.6823
vn -0.6489 -0.7311 -0.2108
vn -0.8539 -0.5155 0.0713
vn -0.9806 -0.1668 -0.1031
vn -0.8539 -0.1668 -0.4930
vn -0.6489 -0.5155 -0.5596
vn -0.4011 -0.7311 0.5520
vn -0.1961 -0.5155 0.8341
vn -0.4011 -0.1668 0.9007
vn -0.7327 -0.1668 0.6598
vn -0.7327 -0.5155 0.4442
vn 0.4011 -0.7311 0.5520
vn 0.7327 -0.5155 0.4442
vn 0.7327 -0.1668 0.6598
vn 0.4011 -0.1668 0.9007
vn 0.1961 -0.5155 0.8341
vn 0.6489 -0.7311 -0.2108
vn 0.6489 -0.5155 -0.5596
vn 0.8539 -0.1668 -0.4930
vn 0.9806 -0.1668 -0.1031
vn 0.8539 -0.5155 0.0713
vn -0.7327 0.1668 -0.6598
vn -0.7327 0.5155 -0.4442
vn -0.4011 0.7311 -0.5520
vn -0.1961 0.5155 -0.8341
vn -0.4011 0.1668 -0.9007
vn -0.9806 0.1668 0.1031
vn -0.8539 0.1668 0.4930
vn -0.6489 0.5155 0.5596
vn -0.6489 0.7311 0.2108
vn -0.8539 0.5155 -0.0713
vn -0.2050 0.1668 0.9644
vn 0.2050 0.1668 0.9644
vn 0.3317 0.5155 0.7901
vn -0.0000 0.7311 0.6823
vn -0.3317 0.5155 0.7901
vn 0.8539 0.1668 0.4930
vn 0.9806 0.1668 0.1031
vn 0.8539 0.5155 -0.0713
vn 0.6489 0.7311 0.2108
vn 0.6489 0.5155 0.5596
vn 0.7327 0.1668 -0.6598
vn 0.4011 0.1668 -0.9007
vn 0.1961 0.5155 -0.8341
vn 0.4011 0.7311 -0.5520
vn 0.7327 0.5155 -0.4442
vn -0.3317 0.9372 0.1078
vn -0.0000 0.9372 0.3487
vn 0.3317 0.9372 0.1078
vn 0.2050 0.9372 -0.2821
vn -0.2050 0.9372 -0.2821
vn -0.0000 -1.0000 -0.0000
vn -0.0000 -0.4472 -0.8944
vn -0.8507 -0.4472 -0.2764
vn -0.5257 -0.4472 0.7236
vn 0.5257 -0.4472 0.7236
vn 0.8507 -0.4472 -0.2764
vn -0.5257 0.4472 -0.7236
vn -0.8507 0.4472 0.2764
vn -0.0000 0.4472 0.8944
vn 0.8507 0.4472 0.2764
vn 0.5257 0.4472 -0.7236
vn -0.0000 1.0000 -0.0000
vn -0.3568 -0.7947 -0.4911
vn -0.5774 -0.7947 0.1876
vn -0.0000 -0.7947 0.6071
vn 0.5774 -0.7947 0.1876
vn 0.3568 -0.7947 -0.4911
vn -0.5774 -0.1876 -0.7947
vn -0.9342 0.1876 -0.3035
vn -0.9342 -0.1876 0.3035
vn -0.5774 0.1876 0.7947
vn -0.0000 -0.1876 0.9822
vn 0.5774 0.1876 0.7947
vn 0.9342 -0.1876 0.3035
vn 0.9342 0.1876 -0.3035
vn 0.5774 -0.1876 -0.7947
vn -0.0000 0.1876 -0.9822
vn -0.5774 0.7947 -0.1876
vn -0.3568 0.7947 0.4911
vn 0.3568 0.7947 0.4911
vn 0.5774 0.7947 -0.1876
vn -0.0000 0.7947 -0.6071
s 0
f 85//1 61//1 62//1 1//1 2//1 86//1
f 79//2 85//2 86//2 10//2 9//2 80//2
f 73//3 79//3 80//3 8//3 7//3 74//3
f 67//4 73//4 74//4 6//4 5//4 68//4
f 61//5 67//5 68//5 4//5 3//5 62//5
f 91//6 65//6 66//6 11//6 12//6 92//6
f 145//7 91//7 92//7 21//7 22//7 146//7
f 141//8 145//8 146//8 40//8 39//8 142//8
f 87//9 141//9 142//9 20//9 19//9 88//9
f 65//10 87//10 88//10 2//10 1//10 66//10
f 71//11 63//11 64//11 3//11 4//11 72//11
f 103//12 71//12 72//12 13//12 14//12 104//12
f 97//13 103//13 104//13 26//13 25//13 98//13
f 93//14 97//14 98//14 24//14 23//14 94//14
f 63//15 93//15 94//15 12//15 11//15 64//15
f 77//16 69//16 70//16 5//16 6//16 78//16
f 115//17 77//17 78//17 15//17 16//17 116//17
f 109//18 115//18 116//18 30//18 29//18 110//18
f 105//19 109//19 110//19 28//19 27//19 106//19
f 69//20 105//20 106//20 14//20 13//20 70//20
f 83//21 75//21 76//21 7//21 8//21 84//21
f 127//22 83//22 84//22 17//22 18//22 128//22
f 121//23 127//23 128//23 34//23 33//23 122//23
f 117//24 121//24 122//24 32//24 31//24 118//24
f 75//25 117//25 118//25 16//25 15//25 76//25
f 89//26 81//26 82//26 9//26 10//26 90//26
f 139//27 89//27 90//27 19//27 20//27 140//27
f 133//28 139//28 140//28 38//28 37//28 134//28
f 129//29 133//29 134//29 36//29 35//29 130//29
f 81//30 129//30 130//30 18//30 17//30 82//30
f 101//31 95//31 96//31 23//31 24//31 102//31
f 151//32 101//32 102//32 41//32 42//32 152//32
f 177//33 151//33 152//33 51//33 52//33 178//33
f 147//34 177//34 178//34 50//34 49//34 148//34
f 95//35 147//35 148//35 22//35 21//35 96//35
f 107//36 99//36 100//36 25//36 26//36 108//36
f 113//37 107//37 108//37 27//37 28//37 114//37
f 157//38 113//38 114//38 43//38 44//38 158//38
f 153//39 157//39 158//39 54//39 53//39 154//39
f 99//40 153//40 154//40 42//40 41//40 100//40
f 119//41 111//41 112//41 29//41 30//41 120//41
f 125//42 119//42 120//42 31//42 32//42 126//42
f 163//43 125//43 126//43 45//43 46//43 164//43
f 159//44 163//44 164//44 56//44 55//44 160//44
f 111//45 159//45 160//45 44//45 43//45 112//45
f 131//46 123//46 124//46 33//46 34//46 132//46
f 137//47 131//47 132//47 35//47 36//47 138//47
f 169//48 137//48 138//48 47//48 48//48 170//48
f 165//49 169//49 170//49 58//49 57//49 166//49
f 123//50 165//50 166//50 46//50 45//50 124//50
f 143//51 135//51 136//51 37//51 38//51 144//51
f 149//52 143//52 144//52 39//52 40//52 150//52
f 175//53 149//53 150//53 49//53 50//53 176//53
f 171//54 175//54 176//54 60//54 59//54 172//54
f 135//55 171//55 172//55 48//55 47//55 136//55
f 161//56 155//56 156//56 53//56 54//56 162//56
f 167//57 161//57 162//57 55//57 56//57 168//57
f 173//58 167//58 168//58 57//58 58//58 174//58
f 179//59 173//59 174//59 59//59 60//59 180//59
f 155//60 179//60 180//60 52//60 51//60 156//60
f 61//61 85//61 79//61 73//61 67//61
f 65//62 91//62 145//62 141//62 87//62
f 63//63 71//63 103//63 97//63 93//63
f 69//64 77//64 115//64 109//64 105//64
f 75//65 83//65 127//65 121//65 117//65
f 81//66 89//66 139//66 133//66 129//66
f 95//67 101//67 151//67 177//67 147//67
f 99//68 107//68 113//68 157//68 153//68
f 111//69 119//69 125//69 163//69 159//69
f 123//70 131//70 137//70 169//70 165//70
f 135//71 143//71 149//71 175//71 171//71
f 155//72 161//72 167//72 173//72 179//72
f 1//73 62//73 3//73 64//73 11//73 66//73
f 68//74 5//74 70//74 13//74 72//74 4//74
f 74//75 7//75 76//75 15//75 78//75 6//75
f 80//76 9//76 82//76 17//76 84//76 8//76
f 86//77 2//77 88//77 19//77 90//77 10//77
f 92//78 12//78 94//78 23//78 96//78 21//78
f 98//79 25//79 100//79 41//79 102//79 24//79
f 104//80 14//80 106//80 27//80 108//80 26//80
f 110//81 29//81 112//81 43//81 114//81 28//81
f 116//82 16//82 118//82 31//82 120//82 30//82
f 122//83 33//83 124//83 45//83 126//83 32//83
f 128//84 18//84 130//84 35//84 132//84 34//84
f 134//85 37//85 136//85 47//85 138//85 36//85
f 142//86 39//86 144//86 38//86 140//86 20//86
f 146//87 22//87 148//87 49//87 150//87 40//87
f 152//88 42//88 154//88 53//88 156//88 51//88
f 158//89 44//89 160//89 55//89 162//89 54//89
f 164//90 46//90 166//90 57//90 168//90 56//90
f 170//91 48//91 172//91 59//91 174//91 58//91
f 178//92 52//92 180//92 60//92 176//92 50//92
